<svg version="1.1" id="Layer_1" xmlns="http://www.w3.org/2000/svg" xmlns:xlink="http://www.w3.org/1999/xlink" x="0px" y="0px"
	 viewBox="0 0 61 76" style="enable-background:new 0 0 61 76;" xml:space="preserve">
    <g>
        <path d="M54.9,74.6H4.2v-18L29,31.5c1.3-1.4,2.7-3.7,2.7-5.6c0-2.7-2-4.5-5-4.5c-3.7,0-8.3,2.5-13.8,7.3L12,29.4
            l-11.8-16l0.6-0.6C9.3,4.4,18.6,0.4,29,0.4c7.3,0,13.4,2.3,18.2,6.7c4.8,4.1,7.4,10.2,7.3,16.5c0,5.1-1.6,10.1-4.6,14.2
            c-3.9,5.5-8.3,10.7-13.2,15.4l-1.3,1.3h19.3V74.6z M6.2,72.6h46.7V56.4H30.7l4.7-4.7c4.8-4.6,9.1-9.7,12.9-15.1
            c2.7-3.8,4.2-8.4,4.2-13.1c0.1-5.7-2.3-11.2-6.7-15c-4.5-4.2-10-6.2-16.9-6.2c-9.6,0-18.2,3.7-26.2,11.3l9.5,12.8
            c5.6-4.8,10.3-7.1,14.3-7.1c4.1,0,7,2.7,7,6.5c0,3.1-2.5,6.1-3.2,7l-3.3,3.3L6.2,57.4L6.2,72.6z" fill="#F698AD"/>
    </g>
</svg>
