<svg version="1.1" id="Layer_1" xmlns="http://www.w3.org/2000/svg" xmlns:xlink="http://www.w3.org/1999/xlink" x="0px" y="0px"
	 viewBox="0 0 61 76" style="enable-background:new 0 0 61 76;" xml:space="preserve">
    <g>
        <path class="st0" d="M26.5,75.7c-8.9,0-17.7-2.5-25.3-7.1L0.4,68l8.9-17.6l0.9,0.5c5.3,2.9,10.2,4.4,14.7,4.4c2.1,0,7.1-0.4,7.1-4
            c0-2-2.1-3.3-5.4-3.3H16.1V28.3h7.6c4,0,6.5-1.4,6.5-3.6c0-2.4-2.7-3.5-5.4-3.5c-3,0-7,1.5-11.8,4.5l-0.8,0.5L2,10.2l0.7-0.6
            c6.9-6.1,15.8-9.4,25-9.3C33.9,0.2,40,2.1,44.9,5.8c4.8,3.6,7.3,8.3,7.3,13.8c0,6.5-3.9,12.4-10.2,15.5c7.8,2.6,12.6,9.3,12.6,17.9
            c0.1,6.4-2.8,12.5-8,16.4C41.4,73.6,34.6,75.7,26.5,75.7z M3,67.3c7.1,4.2,15.2,6.4,23.5,6.4c7.7,0,14-1.9,19-5.7
            c4.7-3.5,7.4-9,7.2-14.9c0-8.4-5.1-14.8-13.2-16.6l-0.8-0.2v-1.9l0.7-0.2c6.8-2.5,11-8,11-14.5c0-5-2.1-9-6.5-12.3
            c-4.6-3.4-10.3-5.2-16-5.1c-8.4-0.1-16.6,2.8-23.1,8.2l8.2,12.8c4.8-2.8,8.8-4.2,12-4.2c4.4,0,7.4,2.2,7.4,5.5
            c0,2.7-2.2,5.6-8.5,5.6h-5.6V46h8.3c4.4,0,7.4,2.1,7.4,5.3c0,3.8-3.4,6-9.1,6c-4.6,0-9.5-1.4-14.7-4.1L3,67.3z" fill="#F698AD"/>
    </g>
</svg>
