<svg id="Layer_1" data-name="Layer 1" xmlns="http://www.w3.org/2000/svg" viewBox="0 0 75 75">
  <defs>
    <style>
      .cls-1 {
        fill: #f698ad;
        fill-rule: evenodd;
      }
    </style>
  </defs>
  <path class="cls-1" d="M.37675,4.5.385,2.5q1.52756.00631,3.02253.04436l-.051,1.99935Q1.883,4.50612.37675,4.5Zm66.192,54.07692q-.063-.52785-.1307-1.0501l1.9834-.2572q.07739.59655.14859,1.2003l6.0532-.3238L68.38085,72.5l-7.7376-13.6062Zm-60.141-55.921L6.33054,4.65355q1.50315.07317,2.971.18153L9.449,2.84051Q7.95569,2.7302,6.42779,2.65591Zm5.83556,2.43793.2015-1.98982q1.52445.15436,3.0109.34919l-.26,1.983Q13.75865,5.24517,12.26335,5.09384Zm6.2275-1.19664-.3235,1.97367q1.4787.24235,2.9157.529l.3914-1.96133Q20.00325,4.145,18.49085,3.8972Zm5.4807,3.13453.4642-1.94538q1.495.35673,2.9443.76485l-.5423,1.92508Q25.42775,7.37907,23.97155,7.03173Zm6.3375-.28678-.6259,1.89955q1.41735.467,2.7841.989l.7138-1.86828Q31.7703,7.22626,30.30905,6.745Zm4.885,4.00808L36,8.92259q1.4079.61988,2.76061,1.303l-.90171,1.7852Q36.5537,11.35156,35.19405,10.753Zm6.2522.92376-.9999,1.73211q1.281.7395,2.5038,1.544l1.0995-1.6707Q42.7778,12.4452,41.44625,11.67679Zm3.9294,4.98011,1.1994-1.6004q1.227.9195,2.3916,1.9107l-1.2964,1.5229Q46.5532,17.53925,45.37565,16.6569Zm5.8827,2.39-1.3905,1.4375q1.05315,1.0188,2.0455,2.107l1.478-1.3474Q52.3568,20.1091,51.25835,19.0469Zm2.5679,5.7792,1.5589-1.2529q.9534,1.1862,1.8441,2.4434l-1.6321,1.1561Q54.7417,25.96475,53.82625,24.8261Zm5.0909,3.7284-1.69669,1.0588q.772,1.23705,1.48719,2.5402l1.7534-.9621Q59.719,29.83915,58.91715,28.5545Zm1.1377,6.2188,1.8021-.8675q.65445,1.35945,1.2532,2.7815l-1.8434.776Q60.6876,36.08735,60.05485,34.7733Zm4.1777,4.7698-1.878.6878q.50175,1.3701.9545,2.7973l1.9065-.6046Q64.74965,40.95465,64.23255,39.5431Zm-.08829,6.321,1.92959-.5262q.3945,1.44675.7426,2.9456l-1.94819.4523Q64.52879,47.2739,64.14426,45.8641Zm3.30919,5.4066-1.963.3827q.28,1.437.51919,2.9214l1.9745-.318Q67.73995,52.74,67.45345,51.2707Z"/>
</svg>
