<svg width="24px" height="24px" viewBox="0 0 24 24" version="1.1" xmlns="http://www.w3.org/2000/svg" xmlns:xlink="http://www.w3.org/1999/xlink">
    <title>Combined Shape</title>
    <desc>Created with Sketch.</desc>
    <g id="Page-1" stroke="none" stroke-width="1" fill="none" fill-rule="evenodd">
        <g id="index" transform="translate(-779.000000, -803.000000)" fill="#6BBC13">
            <g id="Group-3" transform="translate(779.000000, 797.000000)">
                <g id="Group-5" transform="translate(0.000000, 6.000000)">
                    <path d="M12,24 C5.372583,24 0,18.627417 0,12 C0,5.372583 5.372583,0 12,0 C18.627417,0 24,5.372583 24,12 C24,18.627417 18.627417,24 12,24 Z M16.1841879,9.19501639 L15.4597676,8.41664346 C15.3604368,8.30983469 15.2396317,8.25641026 15.0976321,8.25641026 C14.9555018,8.25641026 14.8346967,8.30983469 14.7353659,8.41664346 L11.2409913,12.1769417 L9.67492772,10.4885091 C9.57548504,10.3816602 9.45475454,10.3282959 9.31275488,10.3282959 C9.17066192,10.3282959 9.04993143,10.3816602 8.95048875,10.4885091 L8.22606844,11.2669021 C8.12662576,11.3737309 8.07692308,11.5034931 8.07692308,11.6561487 C8.07692308,11.808684 8.12662576,11.9385665 8.22606844,12.0453753 L10.1543049,14.1171808 L10.8787811,14.8955537 C10.9781678,15.0024426 11.0989357,15.0558069 11.2409913,15.0558069 C11.382991,15.0558069 11.5037588,15.0023023 11.6032015,14.8955537 L12.3276591,14.1171808 L16.1841879,9.97344946 C16.2835373,9.8666006 16.3333333,9.73685841 16.3333333,9.58420286 C16.3333333,9.43162749 16.2835373,9.30186526 16.1841879,9.19501639 Z" id="Combined-Shape"></path>
                </g>
            </g>
        </g>
    </g>
</svg>