<svg id="iconsvg" xmlns="http://www.w3.org/2000/svg" x="0px" y="0px"
	 viewBox="0 0 48 48" style="enable-background:new 0 0 48 48;" xml:space="preserve">
    <path d="M43.3,47.6H31.4c-0.4,0-0.8-0.2-1-0.6l-8-14.3h-4.8v13.7c0,0.6-0.5,1.1-1.1,1.1l0,0H6.3c-0.6,0-1.1-0.5-1.1-1.1
	V1.2c0-0.6,0.5-1.1,1.1-1.1h18.9c2.7,0,5.4,0.3,8,1.1C35.4,1.9,37.3,3,39,4.6c1.5,1.5,2.7,3.2,3.5,5.2c0.8,2.1,1.2,4.3,1.2,6.5
	c0,2.9-0.7,5.7-2,8.3c-1.5,2.6-3.7,4.6-6.3,5.9l9,15.5c0.2,0.3,0.2,0.8,0,1.1C44,47.4,43.7,47.6,43.3,47.6z M16.7,16.7v3.5h12.6
	c0.8,0,1.5-0.7,1.5-1.5v-1.9H16.7V16.7z M16.7,10.6v3.5h14.1v-1.9c0-0.8-0.7-1.5-1.5-1.5H16.7V10.6z" fill="#fff"/>
</svg>
