<svg id="log1" data-name="Layer 1" viewBox="0 0 64 64" xmlns="http://www.w3.org/2000/svg">
  <defs>
    <style>
      .cls-1 {
        fill: #e1d08a;
      }

      .cls-2 {
        fill: #fdfcfa;
      }
    </style>
  </defs>
  <g>
    <circle class="cls-1" cx="32" cy="32" r="32"/>
    <g>
      <path class="cls-2" d="M29.40944,20.23347a2.59088,2.59088,0,0,0,.2149,3.07533C29.93522,22.34249,30.42067,21.34751,29.40944,20.23347Z"/>
      <path class="cls-2" d="M34.52094,20.0095a3.78632,3.78632,0,0,0-.30387,3.36691C35.36842,22.34913,35.092,21.431,34.52094,20.0095Z"/>
      <path class="cls-2" d="M37.79934,25.38906c-.00844-1.62815-.005-3.25694-.05541-4.88392-.01433-.46286-.11127-1.05574-.7713-.99736-.5244.0464-.58714.61-.5013.95806.74613,3.02494-1.62094,3.90045-3.483,5.13085-1.10547-2.204.24177-4.75724-.97019-7.35594-.87593,1.42409-.46481,2.65024-.59036,3.78608-.13164,1.19087.33826,2.452-.4161,3.57023h-.00009c-1.87422-1.22473-4.21608-2.12056-3.47882-5.13753.08525-.34877.01518-.93853-.50748-.94844-.81085-.01539-.78335.72016-.79035,1.24429-.03808,2.85.19233,5.72235-.085,8.54621-.456,4.64375.82647,8.17317,5.35409,10.07756.13146,1.3533-.39928,2.8082.59,4.426.69363-1.68837.32353-3.07659.41671-4.42l0,0c4.4942-1.93041,5.89459-5.45854,5.31394-10.09048A33.00617,33.00617,0,0,1,37.79934,25.38906Zm-8.405.55715a4.99219,4.99219,0,0,1,2.08495,2.61232l.00015.00018q-.03439,1.45656-.06869,2.9132l-.00039.00042c-2.26154-.717-3.94018-1.85139-3.87311-4.6061C27.57981,25.12055,28.14,25.15165,29.39438,25.94621ZM30.513,37.11638c-1.63221-.00352-3.01517-2.01013-2.924-4.145.02452-.57479-.49219-1.62836.76584-1.59906,1.41048.03287,3.064,2.11875,3.06866,3.8585C31.14684,35.80883,31.99907,37.11956,30.513,37.11638Zm4.4884-.78768c-.5948.38359-1.22963,1.05165-1.94318.77779-.88347-.33906-.233-1.31641-.33753-1.5137-.6237-2.76974,1.32651-3.23837,2.69-4.13158.53368-.34961.94952-.14243.9878.50955C36.494,33.59736,36.64222,35.27055,35.00141,36.3287Zm.5052-6.5482a5.47718,5.47718,0,0,1-2.9165,1.69165l-.00036-.00049q-.03533-1.45646-.07-2.91313c.574-1.5186,1.848-3.199,3.63376-3.03038C36.83915,25.60811,36.38425,28.89174,35.50661,29.7805Z"/>
      <path class="cls-2" d="M56.913,36.05376c-1.09071-1.07924-1.39026-1.99688-.42924-3.35463.97618-1.37915.27143-2.07536-1.25138-2.21316-.69149-.06256-1.59.29645-1.98458-.561-1.171-2.54444-3.06611-1.37695-3.78723-.1854a71.44554,71.44554,0,0,0-3.828,8.33678c.53958,1.48233.14946,3.36406,2.08263,3.11947a2.559,2.559,0,0,1,2.496.90223c.97016.97926,2.09032,1.29279,2.52587-.453.36839-1.47662,1.18483-1.85856,2.5994-1.92836.99288-.049,2.41538.06364,2.87127-.97578C58.66866,37.69,57.62386,36.75721,56.913,36.05376Zm-.66562,1.88407c-.34442.87749-1.48014.22855-2.14312.49417-1.28468-.28446-2.4647-.54246-2.25869,1.39141.1996,1.47742-1.29582,1.47751-1.55841.10172-.30075-1.36693-.6896-2.07128-1.93678-.623-1.35456,1.38452-1.25981-1.81046-.842-2.38456a15.7943,15.7943,0,0,0,1.98518-5.214,1.68669,1.68669,0,0,1,1.63176-1.57591c1.28323.03528.62464.96557.73284,1.60652.23212,1.37549,1.02891.47431,1.63774.31019.52053-.14029,1.10863-.70418,1.56713-.12317.4845.614-.17335,1.07242-.56217,1.408C52.16589,35.25611,56.93824,35.96376,56.24736,37.93783Z"/>
      <path class="cls-2" d="M11.11584,29.93413c-.37368.84375-1.29333.46806-1.98459.56043-.944.12611-2.22791.55409-1.5317,1.53329,1.57626,2.217.13383,3.49655-.97046,5.02531-1.00815,1.39564-.65087,2.2396,1.10417,2.44119.96737.11112,2.604.01106,2.78369.46424,1.28443,3.23958,2.78882,1.88062,5.31256,1.3906,2.58044-.501,2.22536-1.59138,2.61869-3.3409-.94291-2.6539-1.69015-5.69612-3.635-8.10805C13.9287,28.80331,12.34552,27.15742,11.11584,29.93413Zm5.83966,9.42134c-.72082.82118-1.05676-.24522-1.50769-.56175-.7506-.52686-.97077-.094-1.20322.53059-.248.66625-.35964,1.45787-1.20679,1.69456a.96474.96474,0,0,1-.61592-.98428c.20573-1.86187-.787-1.946-2.23754-1.69715-.738.12659-1.85018.42689-2.21989-.37776-.37782-.82239.53564-1.56151,1.16695-1.94045,2.33005-1.39871.87088-2.69633-.31827-3.96547a1.84451,1.84451,0,0,1,2.10505.01887c1.04934.58924,1.88987,1.09681,1.55718-.86848-.20333-1.201.42124-1.29511,1.23771-.60977a2.76084,2.76084,0,0,1,.92521,1.116,25.99185,25.99185,0,0,0,2.37356,5.53476A1.91614,1.91614,0,0,1,16.9555,39.35547Z"/>
      <path class="cls-2" d="M47.19552,30.98374c-.02813-2.30246-3.35063-2.68642-4.27825-.7032-.23587.41153-.46114.8292-.86237,1.55272-2.50417-4.50659,3.10172-3.83463,5.637-4.71628,3.28646-.92817,2.23377-5.91544-1.17245-5.44746a1.81984,1.81984,0,0,0-1.50412,2.685c.20463.36121.47729.69877.94213.65964,1.4094-.183-.63931-1.79493.90978-1.901a1.231,1.231,0,0,1,1.274.55635c.66778,1.20478-.03026,1.94691-1.0494,2.2448-1.32251.3866-2.7345.45439-4.08369.76491-2.8082.6463-4.04291,3.27857-2.27632,5.34441,1.916,2.2405.9259,4.00141-.24077,5.9597-.35959.60355-1.94724.89751-.96914,1.77924.79444.7162,1.55-.45625,2.09248-1.10006a4.48868,4.48868,0,0,0,.915-1.71737c.43666-1.71917.9911-3.12626,3.10505-3.46211A2.19274,2.19274,0,0,0,47.19552,30.98374Zm-2.6841,1.47585c-1.47976.17333-.6082-1.97773.35135-2.08862.65619-.16538.76325.4022.92347.69216A1.29593,1.29593,0,0,1,44.51142,32.45959Z"/>
      <path class="cls-2" d="M24.03609,38.13714c-1.04429-1.54375-2.46608-3.11563-1.22545-5.05748,2.51851-3.942,1.75721-5.7897-2.91515-6.59153a19.29306,19.29306,0,0,1-2.86535-.61875,1.44237,1.44237,0,0,1-1.08936-1.69369A1.22026,1.22026,0,0,1,17.145,23.14462c1.101-.08425.77034.61848.79009,1.27762.0228.76226.57461.63936,1.00895.27013a1.49615,1.49615,0,0,0,.61653-1.50736c-.50211-2.2775-4.09171-1.89708-4.6315.21183A2.64256,2.64256,0,0,0,16.19324,26.955c1.92988,1.10771,4.59124.09509,6.2397,1.80432.57106.63008,1.00874,1.549.26607,2.19042-1.08342.9357-1.03591-.50535-1.3738-.925-1.3256-1.76294-4.33542-1.2626-4.14195,1.1756-.02112.9963.42428,2.093,1.26935,2.16827,3.55557.28868,2.64822,3.76637,4.54132,5.60064.492.4959,1.1854,1.39461,1.79477.84753C25.64273,39.04994,24.39444,38.66686,24.03609,38.13714Zm-4.42738-5.68477a1.20485,1.20485,0,0,1-1.23341-1.21986.85162.85162,0,0,1,1.08615-.94173,1.556,1.556,0,0,1,1.12377,1.2335C20.57175,32.35781,20.13993,32.505,19.60871,32.45237Z"/>
    </g>
  </g>
</svg>
