<svg id="log2" data-name="Layer 1" viewBox="0 0 64 64" xmlns="http://www.w3.org/2000/svg">
  <defs>
    <style>
      .cls-1 {
        fill: #ff0d2b;
      }

      .cls-2 {
        fill: #fff;
      }
    </style>
  </defs>
  <circle class="cls-1" cx="32" cy="32" r="32"/>
  <g>
    <path class="cls-2" d="M30.60513,10.10558V53.90743L28.24218,53.61V25.95529c-.532-.03278-.94123-.07935-1.35056-.07992-4.102-.00564-8.20453.03041-12.30572-.02815a1.36724,1.36724,0,0,0-1.60208,1.296c-1.53249,8.31486.77885,16.21653,8.402,21.17992.93358.60785.93462.60626.71264,3.00789C15.22906,48.48907,8.86875,39.50057,10.17055,29.24367,11.6608,17.50207,21.73619,10.23757,30.60513,10.10558ZM28.25131,23.45933c0-3.25029.0021-6.41457-.00283-9.57883-.00058-.36524-.04032-.73041-.062-1.09692-4.66691.36945-12.74209,6.69622-13.66572,10.67575Z"/>
    <path class="cls-2" d="M33.59371,53.751V10.09257A21.773,21.773,0,0,1,53.998,32.19129C53.82074,45.58551,42.58658,53.62081,33.59371,53.751Zm2.44334-2.65576A19.57294,19.57294,0,0,0,51.64278,31.23852c-.17256-10.11863-8.12339-16.7081-15.60573-18.4763Z"/>
  </g>
</svg>
