<svg xmlns="http://www.w3.org/2000/svg" width="144.34" height="47.456" viewBox="0 0 144.34 47.456">
    <path d="M38.106,47.456H26.3a1.153,1.153,0,0,1-1.008-.583L17.337,32.622H12.549V46.338A1.133,1.133,0,0,1,11.4,47.456H1.146A1.133,1.133,0,0,1,0,46.338V1.119A1.134,1.134,0,0,1,1.146,0H20.055a26,26,0,0,1,7.993,1.116A14.615,14.615,0,0,1,33.818,4.5a15.09,15.09,0,0,1,3.5,5.16,17.169,17.169,0,0,1,1.177,6.46,16.688,16.688,0,0,1-2.034,8.277,14.389,14.389,0,0,1-6.329,5.916L39.1,45.788a1.085,1.085,0,0,1,0,1.1A1.139,1.139,0,0,1,38.106,47.456ZM11.567,16.543v3.45H24.2a1.531,1.531,0,0,0,1.516-1.543V16.543Zm0-6.06v3.451h14.15V12.027A1.531,1.531,0,0,0,24.2,10.483Z" transform="translate(0 0)" fill="#fff"/>
    <path d="M77.349,19.414a8,8,0,0,1-4.807-1.519L73.6,15.857a6.477,6.477,0,0,0,3.672,1.23c1.986,0,3.269-1.14,3.269-2.9v-.538a4.134,4.134,0,0,1-3.23,1.346,4.955,4.955,0,0,1-3.768-1.519A5.274,5.274,0,0,1,72.08,9.627a5.266,5.266,0,0,1,1.538-3.865,5.193,5.193,0,0,1,3.807-1.538,4.23,4.23,0,0,1,3.23,1.423V4.495h2.5v9.44a5.161,5.161,0,0,1-1.615,4A6.01,6.01,0,0,1,77.349,19.414Zm.364-12.709a2.857,2.857,0,0,0-2.9,2.942,2.9,2.9,0,0,0,.826,2.134,2.972,2.972,0,0,0,4.154,0,2.963,2.963,0,0,0,.826-2.134,2.857,2.857,0,0,0-2.9-2.942ZM61.429,15.242A5.223,5.223,0,0,1,57.1,13.223l1.442-1.711a3.873,3.873,0,0,0,2.9,1.462c.835,0,1.442-.429,1.442-1.02,0-.369-.252-.673-.75-.9-.163-.072-.537-.216-1.25-.481a14.375,14.375,0,0,1-1.345-.557A2.852,2.852,0,0,1,57.737,7.3a2.848,2.848,0,0,1,1.077-2.269,4.3,4.3,0,0,1,2.845-.885,4.9,4.9,0,0,1,3.673,1.5L63.986,7.4a3.44,3.44,0,0,0-2.4-1.038c-.679,0-1.192.38-1.192.884,0,.434.3.749.922.962,1.319.494,2.213.856,2.518,1.019A2.9,2.9,0,0,1,65.6,11.877,3.016,3.016,0,0,1,64.447,14.3,4.543,4.543,0,0,1,61.429,15.242ZM5.557,15.223a5.861,5.861,0,0,1-3.98-1.384A5.054,5.054,0,0,1,0,9.781V.764H2.865V9.59c0,1.847.956,2.865,2.692,2.865A2.54,2.54,0,0,0,8.21,9.59V.764h2.884V9.781a5.054,5.054,0,0,1-1.576,4.057A5.768,5.768,0,0,1,5.557,15.223ZM51.1,15.2a5.507,5.507,0,0,1-4.229-1.6,5.521,5.521,0,0,1-1.462-3.884,5.268,5.268,0,0,1,5.46-5.5,5.241,5.241,0,0,1,3.768,1.423,5.039,5.039,0,0,1,1.48,3.846,8.872,8.872,0,0,1-.1,1.192H48.163a2.824,2.824,0,0,0,3.056,2.23A6.54,6.54,0,0,0,54.6,11.858l1.077,1.9A7.627,7.627,0,0,1,51.1,15.2Zm-.23-8.729a2.676,2.676,0,0,0-2.711,2.192h5.325A2.512,2.512,0,0,0,50.873,6.475Zm37.454,8.5H85.616V4.495h2.653V5.955a3.718,3.718,0,0,1,3.288-1.75,4.068,4.068,0,0,1,2.9,1.135A4.263,4.263,0,0,1,95.652,8.57v6.4H92.941V9.3c0-1.625-.827-2.6-2.211-2.6a2.268,2.268,0,0,0-1.742.743,2.8,2.8,0,0,0-.661,1.91v5.614Zm-72.446,0H12.536l4.557-7.19L12.843.764h3.288L18.9,5.629,21.8.764h3.346l-4.48,7.018,4.459,7.189-3.287,0L18.88,9.993l-3,4.98Zm54.334,0H67.5V4.495h2.711V14.971Zm-33.281,0H31.493V.764h5.557a6.583,6.583,0,0,1,5.018,1.922A7.266,7.266,0,0,1,43.894,7.9a7.079,7.079,0,0,1-1.865,5.171A6.8,6.8,0,0,1,36.934,14.972Zm-2.6-11.478v8.748h2.73a3.479,3.479,0,0,0,2.846-1.25A4.85,4.85,0,0,0,40.933,7.84a4.7,4.7,0,0,0-1.019-3.1,3.481,3.481,0,0,0-2.846-1.249Zm34.531-.178a1.69,1.69,0,0,1-1.192-.476,1.687,1.687,0,0,1-.476-1.2A1.635,1.635,0,0,1,67.677.476a1.731,1.731,0,0,1,2.384,0,1.635,1.635,0,0,1,.476,1.161,1.687,1.687,0,0,1-.476,1.2A1.69,1.69,0,0,1,68.869,3.316Z" transform="translate(48.688 0.248)" fill="#fff"/>
    <path d="M44.769,7.374a.747.747,0,0,1-.76-.751.737.737,0,0,1,.76-.73.714.714,0,0,1,.731.73A.733.733,0,0,1,44.769,7.374Zm9.931-.02A2.68,2.68,0,0,1,51.912,4.6,2.821,2.821,0,0,1,56.7,2.663,2.616,2.616,0,0,1,57.487,4.6,2.7,2.7,0,0,1,54.7,7.354Zm0-4.325a1.445,1.445,0,0,0-1.086.461A1.55,1.55,0,0,0,53.171,4.6a1.542,1.542,0,0,0,.442,1.125,1.509,1.509,0,0,0,2.173,0A1.562,1.562,0,0,0,56.228,4.6a1.55,1.55,0,0,0-.443-1.115A1.445,1.445,0,0,0,54.7,3.029ZM48.912,7.335a2.733,2.733,0,0,1-1.99-.769,2.668,2.668,0,0,1-.77-1.961,2.639,2.639,0,0,1,.779-1.961,2.77,2.77,0,0,1,2.019-.769,2.562,2.562,0,0,1,2.422,1.432l-1.019.548a1.609,1.609,0,0,0-1.384-.826A1.528,1.528,0,0,0,47.4,4.6a1.557,1.557,0,0,0,.433,1.125,1.466,1.466,0,0,0,1.1.452,1.615,1.615,0,0,0,1.4-.817l1.019.6A2.736,2.736,0,0,1,48.912,7.335Zm-31.484,0A3.048,3.048,0,0,1,14.8,5.98l.788-.9A2.118,2.118,0,0,0,17.438,6.1c.629,0,1.086-.348,1.086-.827,0-.315-.223-.587-.663-.807-.1-.05-.336-.148-.7-.289a7.111,7.111,0,0,1-.836-.394,1.974,1.974,0,0,1-1.115-1.75A1.87,1.87,0,0,1,15.862.587,2.441,2.441,0,0,1,17.563,0a2.957,2.957,0,0,1,2.278.981l-.73.941a2.142,2.142,0,0,0-1.529-.692c-.575,0-.961.3-.961.75,0,.3.2.551.587.751l.75.346c.308.128.585.254.846.384A1.883,1.883,0,0,1,19.976,5.2a1.922,1.922,0,0,1-.711,1.538A2.78,2.78,0,0,1,17.428,7.335Zm45.856-.114h-1.25v-2.9c0-.807-.423-1.308-1.105-1.308a1.228,1.228,0,0,0-1.211,1.346V7.22h-1.25V2H59.7v.75a1.785,1.785,0,0,1,1.587-.894,1.668,1.668,0,0,1,1.557.932,2.181,2.181,0,0,1,1.875-.932,2.04,2.04,0,0,1,1.519.6,2.2,2.2,0,0,1,.6,1.624V7.219H65.572V4.306c0-.813-.406-1.3-1.086-1.3a1.206,1.206,0,0,0-1.2,1.336V7.22Zm-34.781,0h-1.3V.115h.788l3.884,4.557V.115h1.3v7.1H32.32L28.5,2.7V7.22Zm-27.2,0H0V.115H2.643A2.314,2.314,0,0,1,4.413.76a2.176,2.176,0,0,1,.615,1.577A2.076,2.076,0,0,1,3.538,4.4L5.324,7.218l-1.556,0L2.182,4.557H1.308V7.22Zm0-5.884V3.374H2.5c.729,0,1.183-.394,1.183-1.029A.97.97,0,0,0,2.643,1.337ZM38.414,7.22H37.021l2.75-7.1h1.009l2.72,7.1H42.106L41.52,5.6H39L38.415,7.22ZM40.27,1.99l-.884,2.432h1.759ZM36.127,7.22H34.809V.115h1.318v7.1Zm-10.257,0H21.149V.115H25.87v1.23h-3.4V3.019h3.144v1.22H22.466V5.99h3.4V7.219Zm-11.786,0H9.364V.115h4.72v1.23h-3.4V3.019h3.144v1.22H10.68V5.99h3.4V7.219Zm-6.354,0H6.412V.115H7.729v7.1Z" transform="translate(49.685 22.421)" fill="#fff"/>
</svg>