<svg xmlns="http://www.w3.org/2000/svg" xmlns:xlink="http://www.w3.org/1999/xlink" viewBox="0 0 275 44">
  <defs>
    <mask id="mask" x="0.28723" y="0.0322" width="274.42553" height="43.93547" maskUnits="userSpaceOnUse">
      <g id="mask-2">
        <polygon id="path-1" class="cls-1" points="0.287 0.032 274.713 0.032 274.713 43.967 0.287 43.967 0.287 0.032" fill="#fff" fill-rule="evenodd"/>
      </g>
    </mask>
  </defs>
  <g class="cls-2" mask="url(#mask)">
    <path d="M22.78179,11.3079a1.356,1.356,0,0,0-1.32607-1.384H10.40514v3.09416H22.78179Zm0,4.05026H10.40514v3.09416H21.45572a1.35607,1.35607,0,0,0,1.32607-1.38441ZM34.49143,41.58693a1.003,1.003,0,0,1-.87255,1.49669H23.28747a1.00359,1.00359,0,0,1-.88095-.52335L15.45128,29.77961H11.264V42.08067a1.00265,1.00265,0,0,1-1.00251,1.003H1.29018a1.003,1.003,0,0,1-1.003-1.003V1.52416A1.00265,1.00265,0,0,1,1.29018.52165H17.82937c5.299,0,9.332,1.32474,12.03806,4.033a14.10361,14.10361,0,0,1,4.08915,10.42247c0,5.35732-2.30515,10.19482-7.31592,12.72938ZM259.014,26.117l-4.0308-12.61048L250.78,26.117Zm14.67873,17.10188h-8.86655a1.019,1.019,0,0,1-.97068-.70989l-2.25036-7.064H248.0735l-2.30471,7.0706a1.01889,1.01889,0,0,1-.96891.70326h-8.91649a1.019,1.019,0,0,1-.957-1.36895L249.72888,1.335a1.01887,1.01887,0,0,1,.957-.66922h8.58806a1.01841,1.01841,0,0,1,.96007.67762L274.6528,41.85789a1.01915,1.01915,0,0,1-.96007,1.361ZM229.08993.66575h-8.78786a1.01888,1.01888,0,0,0-1.01887,1.01886v40.515a1.019,1.019,0,0,0,1.01887,1.0193h8.78786a1.01935,1.01935,0,0,0,1.01931-1.0193V1.68461A1.01925,1.01925,0,0,0,229.08993.66575Zm-19.23021,0H201.303a1.01888,1.01888,0,0,0-1.01887,1.01886V23.75616l-19.388-22.73281a1.02054,1.02054,0,0,0-.77575-.3576H173.894a1.01888,1.01888,0,0,0-1.01886,1.01886v40.515a1.019,1.019,0,0,0,1.01886,1.0193h8.49967a1.019,1.019,0,0,0,1.01887-1.0193V20.41623L202.455,42.85907a1.01951,1.01951,0,0,0,.77705.35981h6.62772a1.01906,1.01906,0,0,0,1.01929-1.0193V1.68461A1.019,1.019,0,0,0,209.85972.66575Zm-45.19909,0h-29.73V43.21888h29.67213a1.019,1.019,0,0,0,1.01886-1.0193V34.27587a1.01887,1.01887,0,0,0-1.01886-1.01887H145.75618V26.80789h17.40687a1.01907,1.01907,0,0,0,1.01931-1.01931v-7.8658a1.019,1.019,0,0,0-1.01931-1.01887H145.75618V10.62719h18.90445a1.019,1.019,0,0,0,1.01886-1.01931V1.68461A1.01887,1.01887,0,0,0,164.66063.66575ZM120.70982,19.2073c-1.094-.461-2.764-1.09445-4.89408-1.8428l-3.74305-1.3822c-2.24592-.86328-3.39739-1.89982-3.39739-3.16666,0-1.555,1.61249-2.764,4.54885-2.764a17.74275,17.74275,0,0,1,9.08845,2.86608,1.02546,1.02546,0,0,0,1.45425-.30146l3.95832-6.46061a1.01237,1.01237,0,0,0-.23384-1.33A22.965,22.965,0,0,0,113.05177.03233a17.09642,17.09642,0,0,0-11.40155,3.74261,11.83737,11.83737,0,0,0-4.43393,9.38592c0,4.89453,2.36084,8.58011,7.02551,11.05589a50.96326,50.96326,0,0,0,5.41258,2.188l3.80007,1.26684q3.45509,1.29556,3.4553,3.282c0,2.01563-2.18846,3.10963-4.77961,3.10963a16.37268,16.37268,0,0,1-11.24639-4.55018,1.01633,1.01633,0,0,0-1.52011.17769l-4.27481,6.23076a1.01083,1.01083,0,0,0,.09636,1.273c4.35968,4.49847,9.98442,6.77312,16.77213,6.77312q7.68723,0,12.26525-3.80052a12.27644,12.27644,0,0,0,4.60678-9.789c0-5.12526-2.70651-8.86787-8.11953-11.17081ZM89.86589.66575h-29.73V43.21888H89.808a1.019,1.019,0,0,0,1.01886-1.0193V34.27587A1.01888,1.01888,0,0,0,89.808,33.257H70.96144V26.80789H88.36831a1.01906,1.01906,0,0,0,1.0193-1.01931v-7.8658a1.019,1.019,0,0,0-1.0193-1.01887H70.96144V10.62719H89.86589a1.019,1.019,0,0,0,1.01886-1.01931V1.68461A1.01887,1.01887,0,0,0,89.86589.66575Zm-38.136,1.01886v40.515a1.019,1.019,0,0,1-1.01886,1.0193H41.92361a1.019,1.019,0,0,1-1.01887-1.0193V1.68461A1.01888,1.01888,0,0,1,41.92361.66575H50.711a1.01887,1.01887,0,0,1,1.01886,1.01886Z" fill="#fff" fill-rule="evenodd"/>
  </g>
</svg>
